<svg width="64" height="64" viewBox="0 0 64 64" fill="none" xmlns="http://www.w3.org/2000/svg">
<path d="M34.9771 3.41716C34.3979 3.12759 33.7163 3.12759 33.1371 3.41716L16.68 11.6457C15.983 11.9942 15.5428 12.7065 15.5428 13.4857V49.4857C15.5428 50.2289 15.9437 50.9143 16.5914 51.2787L33.0486 60.5358C33.6855 60.8941 34.4648 60.8875 35.0956 60.5186C35.7265 60.1496 36.1142 59.4737 36.1142 58.7428V39.4428L51.4342 31.7828C52.1312 31.4343 52.5714 30.722 52.5714 29.9428C52.5714 29.1637 52.1312 28.4513 51.4342 28.1029L38.657 21.7143L51.4342 15.3257C52.1312 14.9772 52.5714 14.2649 52.5714 13.4857C52.5714 12.7065 52.1312 11.9942 51.4342 11.6457L34.9771 3.41716Z" fill="black"/>
</svg>
